<?xml version="1.0" encoding="UTF-8"?><svg id="_레이어_2" xmlns="http://www.w3.org/2000/svg" viewBox="0 0 4160.51 369"><defs><style>.cls-1{fill:#b9d2eb;}.cls-2{fill:#2b3f50;}</style></defs><g id="_레이어_1-2"><polygon class="cls-1" points="2080.01 345 0 345 0 188.57 10.72 188.57 10.72 281.23 33.51 281.23 33.51 175.16 48.25 175.16 74.38 151.38 74.38 197.1 84.43 197.1 84.43 91.03 113.92 91.03 113.92 66.65 135.36 66.65 135.36 34.95 200.59 34.95 200.59 72.34 222.03 91.85 222.03 249.53 250.62 249.53 250.62 162.56 260.45 153.62 260.45 94.28 269.38 94.28 269.38 153.62 281.89 165 281.89 252.78 299.76 252.78 299.76 160.12 308.7 160.12 308.7 146.3 323.88 146.3 343.99 128.01 343.99 104.85 356.94 104.85 356.94 126.8 368.56 126.8 368.56 104.04 390.9 104.04 390.9 128.42 408.32 144.27 408.32 181.25 418.59 181.25 418.59 168.25 427.53 168.25 427.53 182.88 440.04 194.26 440.04 212.14 454.33 212.14 454.33 43.89 549.04 43.89 549.04 145.49 579.42 173.12 579.42 213.76 592.82 213.76 592.82 185.32 603.99 175.16 641.07 175.16 641.07 186.13 663.41 186.13 687.98 208.48 687.98 181.25 709.2 161.95 811.72 161.95 811.72 169.06 796.53 169.06 796.53 193.44 824.68 219.05 824.68 186.13 835.85 186.13 835.85 243.84 847.46 243.84 847.46 211.33 872.48 211.33 872.48 255.22 894.82 255.22 894.82 173.12 920.73 149.55 945.3 171.91 945.3 239.77 963.84 222.91 963.84 172.31 977.91 172.31 977.91 97.53 1019.01 97.53 1019.01 197.51 1038.89 179.42 1074.4 179.42 1095.96 199.03 1095.96 159.31 1135.16 159.31 1135.16 167.43 1171.79 167.43 1171.79 249.53 1185.19 249.53 1185.19 198.32 1198.6 198.32 1198.6 160.93 1215.57 160.93 1215.57 241.4 1232.55 241.4 1232.55 100.79 1243.27 100.79 1243.27 90.22 1332.62 104.04 1332.62 199.95 1346.91 199.95 1346.91 162.56 1371.04 162.56 1371.04 151.18 1387.12 151.18 1387.12 139.8 1423.75 139.8 1423.75 115.42 1452.34 115.42 1452.34 160.12 1471.11 160.12 1471.11 106.48 1496.12 106.48 1496.12 86.97 1510.42 86.97 1510.42 105.66 1532.76 105.66 1586.37 56.9 1586.37 192.63 1603.34 192.63 1603.34 161.75 1631.04 136.55 1647.12 136.55 1647.12 168.25 1670.35 168.25 1670.35 76.4 1690.01 76.4 1690.01 68.27 1722.17 68.27 1722.17 78.84 1742.72 78.84 1742.72 125.98 1787.84 167.03 1787.84 204.42 1803.48 204.42 1803.48 165.81 1829.39 142.24 1829.39 70.71 1842.79 70.71 1842.79 42.27 1865.13 42.27 1865.13 18.69 1873.17 18.69 1873.17 0 1882.11 0 1882.11 18.69 1899.98 18.69 1899.98 73.96 1950.01 73.96 1950.01 197.51 1971.45 197.51 1971.45 229.21 2006.3 197.51 2006.3 230.83 2027.74 230.83 2027.74 127.61 2080.01 127.61 2080.01 345"/><polygon class="cls-1" points="4160.51 345 2080.5 345 2080.5 188.57 2091.22 188.57 2091.22 281.23 2114 281.23 2114 175.16 2128.75 175.16 2154.88 151.38 2154.88 197.1 2164.93 197.1 2164.93 91.03 2194.42 91.03 2194.42 66.65 2215.86 66.65 2215.86 34.95 2281.08 34.95 2281.08 72.34 2302.53 91.85 2302.53 249.53 2331.12 249.53 2331.12 162.56 2340.95 153.62 2340.95 94.28 2349.88 94.28 2349.88 153.62 2362.39 165 2362.39 252.78 2380.26 252.78 2380.26 160.12 2389.19 160.12 2389.19 146.3 2404.38 146.3 2424.49 128.01 2424.49 104.85 2437.44 104.85 2437.44 126.8 2449.06 126.8 2449.06 104.04 2471.39 104.04 2471.39 128.42 2488.82 144.27 2488.82 181.25 2499.09 181.25 2499.09 168.25 2508.03 168.25 2508.03 182.88 2520.53 194.26 2520.53 212.14 2534.83 212.14 2534.83 43.89 2629.54 43.89 2629.54 145.49 2659.92 173.12 2659.92 213.76 2673.32 213.76 2673.32 185.32 2684.49 175.16 2721.57 175.16 2721.57 186.13 2743.9 186.13 2768.47 208.48 2768.47 181.25 2789.69 161.95 2892.22 161.95 2892.22 169.06 2877.03 169.06 2877.03 193.44 2905.18 219.05 2905.18 186.13 2916.34 186.13 2916.34 243.84 2927.96 243.84 2927.96 211.33 2952.98 211.33 2952.98 255.22 2975.31 255.22 2975.31 173.12 3001.22 149.55 3025.79 171.91 3025.79 239.77 3044.33 222.91 3044.33 172.31 3058.41 172.31 3058.41 97.53 3099.51 97.53 3099.51 197.51 3119.39 179.42 3154.9 179.42 3176.46 199.03 3176.46 159.31 3215.66 159.31 3215.66 167.43 3252.29 167.43 3252.29 249.53 3265.69 249.53 3265.69 198.32 3279.09 198.32 3279.09 160.93 3296.07 160.93 3296.07 241.4 3313.05 241.4 3313.05 100.79 3323.77 100.79 3323.77 90.22 3413.12 104.04 3413.12 199.95 3427.41 199.95 3427.41 162.56 3451.54 162.56 3451.54 151.18 3467.62 151.18 3467.62 139.8 3504.25 139.8 3504.25 115.42 3532.84 115.42 3532.84 160.12 3551.6 160.12 3551.6 106.48 3576.62 106.48 3576.62 86.97 3590.92 86.97 3590.92 105.66 3613.25 105.66 3666.86 56.9 3666.86 192.63 3683.84 192.63 3683.84 161.75 3711.54 136.55 3727.62 136.55 3727.62 168.25 3750.85 168.25 3750.85 76.4 3770.51 76.4 3770.51 68.27 3802.67 68.27 3802.67 78.84 3823.22 78.84 3823.22 125.98 3868.34 167.03 3868.34 204.42 3883.98 204.42 3883.98 165.81 3909.89 142.24 3909.89 70.71 3923.29 70.71 3923.29 42.27 3945.63 42.27 3945.63 18.69 3953.67 18.69 3953.67 0 3962.6 0 3962.6 18.69 3980.47 18.69 3980.47 73.96 4030.51 73.96 4030.51 197.51 4051.95 197.51 4051.95 229.21 4086.8 197.51 4086.8 230.83 4108.24 230.83 4108.24 127.61 4160.51 127.61 4160.51 345"/><rect class="cls-2" x="0" y="345" width="4160.51" height="24"/></g></svg>