<?xml version="1.0" encoding="UTF-8"?>
<svg id="_레이어_2" data-name="레이어 2" xmlns="http://www.w3.org/2000/svg" xmlns:xlink="http://www.w3.org/1999/xlink" viewBox="0 0 116 216">
  <defs>
    <style>
      .cls-1 {
        fill: url(#_무제_그라디언트_19);
        stroke: #b5b9bb;
      }

      .cls-2 {
        fill: #cbcbcb;
      }

      .cls-3 {
        fill: #3d4253;
        stroke: #989898;
        stroke-width: .8px;
      }

      .cls-4 {
        fill: #e7ece7;
      }

      .cls-5 {
        opacity: .4;
      }

      .cls-6 {
        fill: #1a1a1a;
      }

      .cls-7 {
        fill: #666;
      }
    </style>
    <linearGradient id="_무제_그라디언트_19" data-name="무제 그라디언트 19" x1="57.6" y1="51.4" x2="57.6" y2="195.6" gradientUnits="userSpaceOnUse">
      <stop offset="0" stop-color="#4a555b"/>
      <stop offset="0" stop-color="#4a555b"/>
      <stop offset=".1" stop-color="#fff" stop-opacity=".6"/>
      <stop offset=".2" stop-color="#949b9e" stop-opacity=".7"/>
      <stop offset=".2" stop-color="#4a555b"/>
      <stop offset=".5" stop-color="#6b7479"/>
      <stop offset=".7" stop-color="#4a555b"/>
      <stop offset=".8" stop-color="#cccfd0" stop-opacity=".4"/>
      <stop offset=".9" stop-color="#f5f5f5" stop-opacity=".5"/>
      <stop offset=".9" stop-color="#4a555b"/>
      <stop offset="1" stop-color="#4a555b"/>
    </linearGradient>
  </defs>
  <g id="_레이어_1-2" data-name="레이어 1">
    <g>
      <g>
        <g>
          <path class="cls-7" d="m106.2,2c3.7,0,6.8,3,6.8,6.8v21.6c0,3.3-2.3,6.1-5.6,6.7l-48.7,8.8c-.4,0-.8.1-1.2.1s-.8,0-1.2-.1L7.6,37c-3.2-.6-5.6-3.4-5.6-6.7V8.8c0-3.7,3-6.8,6.8-6.8h97.5m0-2H8.8C3.9,0,0,3.9,0,8.8v21.6c0,4.2,3,7.9,7.2,8.6l48.7,8.8c.5,0,1,.1,1.6.1s1,0,1.6-.1l48.7-8.8c4.2-.8,7.2-4.4,7.2-8.6V8.8c0-4.8-3.9-8.8-8.8-8.8h0Z"/>
          <path class="cls-4" d="m107.4,37l-48.7,8.8c-.8.1-1.6.1-2.4,0L7.6,37c-3.2-.6-5.6-3.4-5.6-6.7V8.8c0-3.7,3-6.8,6.8-6.8h97.5c3.7,0,6.8,3,6.8,6.8v21.6c0,3.3-2.3,6.1-5.6,6.7Z"/>
        </g>
        <g>
          <path class="cls-7" d="m9.7,22.1v-10.7h7.8v10.7h-7.8Zm2.5-8.8v6.8h2.8v-6.8h-2.8Zm12.1,2.5v2.1h-2.3v8.1h-2.5V9.9h2.5v6h2.3Z"/>
          <path class="cls-7" d="m24.8,21.9h14.7v2.1h-14.7v-2.1Zm10.4-8.6h-8.9v-2h11.4v2c0,2.3,0,4.4-.6,7.7l-2.6-.2c.6-3,.6-5.3.6-7.5h0Z"/>
          <path class="cls-7" d="m43.4,20.1c1.4,0,2.7-.1,4-.4l.3,2.1c-1.9.4-3.6.5-5.8.5h-1.2v-10.9h2.5v8.7Zm5.1-5.2v-4.7h2.4v15.2h-2.4v-8.4h-3.1v-2h3.1Zm3.5-5h2.4v16.1h-2.4V9.9Z"/>
          <path class="cls-7" d="m65.9,18.7c-2.3.3-4.3.4-7.7.4h-1.4v-8.1h7.8v2h-5.3v1.1h4.8v1.9h-4.8v1.1c2.7,0,4.4,0,6.4-.4l.2,2Zm-7.6,3.6v-2h11.1v5.8h-2.5v-3.8h-8.6Zm8.6-12.4h2.5v9.8h-2.5v-9.8Z"/>
          <path class="cls-7" d="m83.9,11.4c0,5.1-1.1,9.2-7.2,12.2l-1.4-1.9c2.6-1.3,4.1-2.7,5-4.3l-4.5.4-.3-2.2,5.6-.3c.1-.6.2-1.3.3-2h-5v-2h7.5Zm6.5,4.6v2.1h-2.2v7.9h-2.5V9.9h2.5v6.1h2.2Z"/>
          <path class="cls-7" d="m91.1,22h14.7v2.1h-14.7v-2.1Zm13.2-4.8v2h-11.5v-8.1h11.4v2h-8.9v4h9Z"/>
        </g>
      </g>
      <g>
        <rect class="cls-6" x="34" y="55" width="47" height="143" rx="3.4" ry="3.4"/>
        <rect class="cls-1" x="37.3" y="58.5" width="40.5" height="135.5" rx="3.1" ry="3.1"/>
        <path class="cls-3" d="m38.1,192.5h0c-.4,0-.8-.5-.8-1.2V61.4c0-.7.4-1.2.8-1.2h0c2.4,0,4.4,9.2,4.4,12.8v104.1c0,3.5-2,15.3-4.4,15.3Z"/>
        <path class="cls-3" d="m77,192.5h0c.4,0,.8-.5.8-1.2V61.4c0-.7-.4-1.2-.8-1.2h0c-2.4,0-4.4,9.2-4.4,12.8v104.1c0,3.5,2,15.3,4.4,15.3Z"/>
        <g>
          <rect class="cls-6" x="55.7" y="72.5" width="3.9" height="113.9" rx=".5" ry=".5"/>
          <path class="cls-2" d="m59.1,73v112.9s-2.9,0-2.9,0v-112.9s2.9,0,2.9,0m0-1h-2.9c-.5,0-1,.4-1,1v112.9c0,.5.4,1,1,1h2.9c.5,0,1-.4,1-1v-112.9c0-.5-.4-1-1-1h0Z"/>
        </g>
        <g class="cls-5">
          <image width="92" height="178" transform="translate(24 38)" xlink:href="magnetic1.png"/>
        </g>
      </g>
    </g>
  </g>
</svg>