<?xml version="1.0" encoding="UTF-8"?>
<svg id="_레이어_2" data-name="레이어 2" xmlns="http://www.w3.org/2000/svg" viewBox="0 0 743.5 597.5">
  <defs>
    <style>
      .cls-1 {
        fill: #ea002c;
        
      }

      .cls-2 {
        fill: #ff7a00;
      }

    </style>
  </defs>
  <g id="_레이어_1-2" data-name="레이어 1">
    <g>
      <path class="cls-1" d="m230.6,101.5c-30.8,5.8-76.5,33.8-76.4,83.3.1,45,36.9,72.2,37,131.1.2,44.3-24.3,74.1-50.7,90.7,10.6-.9,22.4-1.6,35.2-1.6,27,0,43.2,2.5,44.3,2.7l138.3-169.8c-38.4-57.5-83.3-102.2-127.8-136.4h0Z"/>
      <path class="cls-1" d="m346.8,559.9c17.4-27.1,19.6-70.3,21.1-114.3,1.7-41,10.2-71.9,65.1-72.2,12.2,0,23.8,1.6,44.8,1.6,80.5-.4,133-28.1,165.7-46.2-66.8-42.6-164.2-86-285.1-90.9-7.9,22.2-69.2,192.6-73.8,206.3.7.8,11.4,12.9,24.8,36.3,19.8,32.2,30.4,59.5,37.4,79.4h0Z"/>
      <path class="cls-2" d="m54.6,420.8c-7,0-10.5-4.6-11.5-12.7C42.3,400.1,7.7,83.6,2.5,35.6,1.8,28.7,0,15.8,0,11.2,0,3.8,4.8,0,10.5,0c16.4,0,105.8,20.9,200.6,87.3-27.3,7.7-76.7,36.1-76.6,94.9.2,52.1,37.5,80.7,37.7,133,.3,85-97.4,105.5-117.6,105.6h0Z"/>
      <path class="cls-2" d="m354.8,582.5c1.5,3.9,2.9,7.2,4.3,9.6,2.2,3.7,5.1,5.4,8.5,5.3,2.2,0,4.9-.7,7.9-2.1,7.3-3.3,296.2-137.8,339.8-157.9,6.3-3,18.3-8.4,22.3-10.7,4.1-2.3,5.9-5.7,5.9-9.2s-.6-3.9-1.7-5.7c-5.4-8.8-33.4-38.4-80.1-70.9-37.1,20.4-95.1,52-181.2,52.4-21.1,0-25.9-1.4-40.3-1.3-42.1.1-52.6,18.1-54.2,55-.3,7-.4,16.3-.8,26.6-1.3,33-5.2,78.5-30.4,108.9h0Z"/>
    </g>
  </g>
</svg>